<svg width="512" height="512" xmlns="http://www.w3.org/2000/svg">

 <g>
  <title>background</title>
  <rect fill="none" id="canvas_background" height="402" width="582" y="-1" x="-1"/>
 </g>
 <g>
  <title fill="#39ed75">Layer 1</title>
  <circle fill="#39ed75" id="svg_2" r="37.081" cy="164.224" cx="377.172"/>
  <path fill="#39ed75" id="svg_3" d="m174.829,491.418l14.338,-107.463l-4.645,-34.808l1.414,-1.28l-26.719,-24.368l-0.225,-0.224c-17.494,-17.521 -19.881,-44.519 -7.158,-64.61l-0.721,-1.063l7.842,-7.953l20.902,-20.902c1.477,-1.479 2.988,-2.528 4.514,-3.786c-11.586,-6.324 -24.668,-9.461 -38.1,-9.461l-21.398,0c-21.104,0 -41.354,7.223 -56.271,22.139l-20.902,19.861l0.043,0c-15.029,16 -15.029,40.289 0,55.344l38.881,35.893l-19.215,144.182c-0.383,2.881 1.867,5.581 4.77,5.581l29.363,0c2.408,0 4.432,-1.674 4.77,-4.059l15.908,-115.395c0.268,-1.957 0.924,-3.755 1.869,-5.374c5.016,-8.553 17.953,-8.538 22.947,0.013c0.969,1.619 1.621,3.448 1.889,5.407l15.91,115.347c0.338,2.387 2.361,4.061 4.77,4.061l5.711,0c-0.626,-2 -0.805,-4.676 -0.487,-7.082zm-81.656,-186.75l-12.285,-12.307c-3.285,-3.285 -3.285,-8.596 0,-11.881l15.545,-15.545c0.811,-0.813 2.184,-0.137 2.027,1.01l-5.287,38.723z"/>
  <circle fill="#39ed75" id="svg_4" r="37.081" cy="164.225" cx="135.571"/>
  <path fill="#39ed75" id="svg_5" d="m211.427,64.974l5.396,1.191c0.971,0.213 1.704,0.971 1.919,1.939c0.834,3.764 2.206,7.322 4.049,10.584c0.465,0.82 0.434,1.828 -0.074,2.625l-3.352,5.225c-0.646,1.008 -0.505,2.328 0.343,3.174l5.258,5.264c0.85,0.846 2.167,0.988 3.175,0.344l4.749,-3.041c0.838,-0.537 1.913,-0.531 2.75,0.008c3.148,2.014 6.607,3.588 10.289,4.627c0.902,0.256 1.592,0.984 1.793,1.9l1.334,6.39c0.258,1.164 1.291,2.296 2.488,2.296l7.441,0c1.197,0 2.232,-1.132 2.486,-2.296l1.201,-5.613c0.213,-0.975 0.977,-1.806 1.955,-2.017c3.775,-0.813 7.346,-2.212 10.621,-4.039c0.82,-0.457 1.822,-0.447 2.611,0.059l5.178,3.306c1.01,0.646 2.33,0.5 3.176,-0.348l5.262,-5.263c0.846,-0.846 0.988,-2.167 0.346,-3.178l-2.949,-4.602c-0.539,-0.844 -0.529,-1.921 0.016,-2.761c2.076,-3.195 3.691,-6.719 4.754,-10.477c0.256,-0.9 0.984,-1.588 1.902,-1.787l5.907,-1.287c1.168,-0.254 2.047,-1.291 2.047,-2.486l0,-7.441c0,-1.195 -0.879,-2.23 -2.047,-2.488l-5.222,-1.141c-0.98,-0.215 -1.749,-0.982 -1.956,-1.961c-0.822,-3.879 -2.228,-7.541 -4.118,-10.895c-0.461,-0.82 -0.438,-1.826 0.068,-2.619l3.17,-4.951c0.645,-1.006 0.501,-2.328 -0.347,-3.172l-5.262,-5.264c-0.846,-0.846 -2.164,-0.99 -3.172,-0.344l-4.427,2.834c-0.842,0.539 -1.918,0.531 -2.758,-0.014c-3.254,-2.105 -6.844,-3.734 -10.674,-4.791c-0.908,-0.252 -1.602,-0.982 -1.807,-1.904l-1.25,-5.883c-0.258,-1.168 -1.293,-2.177 -2.488,-2.177l-7.441,0c-1.197,0 -2.232,1.009 -2.486,2.177l-1.135,5.26c-0.213,0.973 -0.975,1.769 -1.949,1.981c-3.865,0.842 -7.518,2.284 -10.854,4.19c-0.822,0.467 -1.836,0.455 -2.631,-0.055l-4.998,-3.198c-1.01,-0.643 -2.33,-0.499 -3.176,0.349l-5.262,5.262c-0.848,0.846 -0.99,2.167 -0.344,3.174l2.928,4.573c0.535,0.838 0.531,1.907 -0.002,2.745c-2.049,3.205 -3.635,6.732 -4.668,10.488c-0.25,0.908 -0.984,1.605 -1.904,1.809l-5.863,1.303c-1.17,0.254 -1.927,1.289 -1.927,2.486l0,7.441c0.004,1.196 0.761,2.231 1.931,2.489zm44.951,-27.174c12.193,0 22.076,9.885 22.076,22.076c0,12.193 -9.883,22.076 -22.076,22.076c-12.191,0 -22.074,-9.883 -22.074,-22.076c0,-12.191 9.883,-22.076 22.074,-22.076z"/>
  <path fill="#39ed75" id="svg_6" d="m135.167,106.572c0.287,0.041 0.57,0.059 0.852,0.059c3.041,0 5.695,-2.246 6.121,-5.344c2.762,-20.082 20.154,-35.223 40.459,-35.223c3.416,0 6.188,-2.771 6.188,-6.188s-2.771,-6.188 -6.188,-6.188c-26.455,0 -49.119,19.738 -52.719,45.91c-0.467,3.386 1.902,6.509 5.287,6.974z"/>
  <path fill="#39ed75" id="svg_7" d="m327.524,66.064c20.35,0 37.748,15.182 40.469,35.311c0.42,3.107 3.076,5.359 6.123,5.359c0.277,0 0.557,-0.018 0.838,-0.057c3.387,-0.459 5.762,-3.574 5.305,-6.961c-3.549,-26.238 -26.219,-46.027 -52.734,-46.027c-3.418,0 -6.188,2.771 -6.188,6.188s2.769,6.187 6.187,6.187z"/>
  <path fill="#39ed75" id="svg_8" d="m316.776,435.057l-11.451,-85.861l11.475,-10.461l27.404,-24.998c15.031,-15.051 15.031,-39.443 0,-54.473l0.045,-0.068l-20.902,-20.903c-2.092,-2.092 -4.297,-3.815 -6.592,-5.59c-14.041,-11.271 -31.545,-17.202 -49.68,-17.202l-21.4,0c-18.133,0 -35.639,5.931 -49.68,17.181c-2.293,1.797 -4.5,3.649 -6.592,5.741l-20.902,20.837l0.047,0.037c-15.029,15.029 -15.029,39.404 0,54.457l27.404,24.987l11.473,10.458l-11.451,85.86l-7.76,58.206c-0.361,2.721 1.619,5.06 4.273,5.331c0.158,0.021 0.338,-0.096 0.494,-0.096l29.363,0c2.406,0 4.432,-1.664 4.768,-4.047l15.91,-115.389c0.27,-1.957 0.922,-3.774 1.867,-5.394c5.018,-8.527 17.955,-8.515 22.949,0.013c0.967,1.619 1.621,3.472 1.891,5.433l15.908,115.333c0.336,2.385 2.361,4.051 4.77,4.051l29.363,0c0.154,0 0.336,0.115 0.494,0.094c2.654,-0.273 4.637,-2.666 4.275,-5.389l-7.763,-58.148zm-102.802,-130.366l-12.285,-12.309c-3.285,-3.285 -3.285,-8.594 0,-11.879l15.549,-15.547c0.811,-0.811 2.182,-0.137 2.025,0.988l-5.289,38.747zm79.513,-38.746c-0.154,-1.125 1.217,-1.799 2.027,-0.988l15.547,15.547c3.285,3.285 3.285,8.594 0,11.879l-12.285,12.309l-5.289,-38.747z"/>
  <path fill="#39ed75" id="svg_9" d="m465.007,259.242l0.043,-0.068l-20.898,-20.634c-14.941,-14.916 -35.17,-23.04 -56.275,-23.04l-21.396,0c-13.445,0 -26.539,3.142 -38.131,9.485c1.525,1.291 3.045,2.522 4.543,4.02l28.791,28.66l-0.766,1.063c12.723,20.096 10.336,47.057 -7.162,64.58l-0.453,0.417l-26.493,24.155l1.42,1.296l-4.643,34.823l14.334,107.38c0.32,2.432 0.141,5.121 -0.494,7.121l5.721,0c2.406,0 4.432,-1.674 4.77,-4.059l15.908,-115.395c0.27,-1.957 0.92,-3.755 1.867,-5.374c5.018,-8.553 17.955,-8.538 22.949,0.013c0.947,1.619 1.596,3.448 1.891,5.407l15.906,115.347c0.338,2.387 2.361,4.061 4.771,4.061l29.361,0c2.902,0 5.152,-2.482 4.77,-5.365l-19.215,-144.012l38.881,-35.437c15.029,-15.052 15.029,-39.415 0,-54.444zm-33.145,33.119l-12.283,12.307l-5.287,-38.723c-0.158,-1.146 1.215,-1.822 2.025,-1.01l15.545,15.545c3.289,3.286 3.289,8.596 0,11.881z"/>
  <path fill="#39ed75" id="svg_10" d="m256.376,126.5l-0.002,0c-20.479,0 -37.078,16.519 -37.078,36.999c0,20.479 16.6,37.001 37.078,37.001l0.002,0c20.479,0 37.08,-16.522 37.08,-37.001c0,-20.48 -16.602,-36.999 -37.08,-36.999z"/>
 </g>
</svg>