<svg width="16" height="16" xmlns="http://www.w3.org/2000/svg">
 <title/>

 <g>
  <title>background</title>
  <rect fill="none" id="canvas_background" height="402" width="582" y="-1" x="-1"/>
 </g>
 <g>
  <title fill="#39ed75">Layer 1</title>
  <path fill="#39ed75" id="Oval 188" d="m8,14c2.76142,0 5,-2.23858 5,-5c0,-1.63581 -0.78555,-3.08815 -2,-4.00037l0,-2.326c2.36495,1.12346 4,3.53397 4,6.32637c0,3.86599 -3.13401,7 -7,7c-3.86599,0 -7,-3.13401 -7,-7c0,-2.7924 1.63505,-5.20291 4,-6.32637l0,2.326c-1.21445,0.91222 -2,2.36456 -2,4.00037c0,2.76142 2.23858,5 5,5zm0,-5c-0.55614,0 -1,-0.44639 -1,-0.99703l0,-6.00594c0,-0.54399 0.44771,-0.99703 1,-0.99703c0.55614,0 1,0.44639 1,0.99703l0,6.00594c0,0.54399 -0.44771,0.99703 -1,0.99703zm0,0"/>
 </g>
</svg>